<svg xmlns="http://www.w3.org/2000/svg" fill="none" viewBox="0 0 40 40">
<symbol id="floppy">
  <path fill="currentColor" d="M1 1h3v3H1zm0 3h3v3H1zm0 3h3v3H1zm0 3h3v3H1zm0 3h3v3H1zm0 3h3v3H1zm0 3h3v3H1zm0 3h3v3H1zm0 3h3v3H1zm0 3h3v3H1zm0 3h3v3H1zm0 3h3v3H1zm0 3h3v3H1zM33 1v3h-3V1zm-3 0v3h-3V1zm-3 0v3h-3V1zm-3 0v3h-3V1zm-3 0v3h-3V1zm-3 0v3h-3V1zm-3 0v3h-3V1zm-3 0v3H9V1zM9 1v3H6V1z"/>
  <path fill="currentColor" d="M6 1v3H3V1zm30 3v3h-3V4zM9 7v3H6V7zm0-3v3H6V4zm0 6v3H6v-3zm21-3v3h-3V7zm0-3v3h-3V4zm0 6v3h-3v-3zm-6-3v3h-3V7zm0-3v3h-3V4zm0 6v3h-3v-3zm6 3v3h-3v-3zm-3 0v3h-3v-3zm-3 0v3h-3v-3zm-3 0v3h-3v-3zm-3 0v3h-3v-3zm-3 0v3h-3v-3zm-3 0v3H9v-3zm-3 0v3H6v-3zm24 9v3h-3v-3zm-3 0v3h-3v-3zm-3 0v3h-3v-3zm-3 0v3h-3v-3zm-3 0v3h-3v-3zm-3 0v3h-3v-3zm-3 0v3h-3v-3zm-3 0v3H9v-3zm-3 0v3H6v-3zm24 3v3h-3v-3zM9 25v3H6v-3zm24 3v3h-3v-3zM9 28v3H6v-3zm24 3v3h-3v-3zM9 31v3H6v-3zm0 3v3H6v-3zm24 0v3h-3v-3zm3 3v3h-3v-3zm-3 0v3h-3v-3zm-3 0v3h-3v-3zm-3 0v3h-3v-3zm-3 0v3h-3v-3zm-3 0v3h-3v-3zm-3 0v3h-3v-3zm-3 0v3h-3v-3zm-3 0v3H9v-3zm-3 0v3H6v-3zm-3 0v3H3v-3zm33 2h-3v-3h3zm0-3h-3v-3h3zm0-3h-3v-3h3zm0-3h-3v-3h3zm0-3h-3v-3h3zm0-3h-3v-3h3zm0-3h-3v-3h3zm0-3h-3v-3h3zm0-3h-3v-3h3zm0-3h-3V9h3zm0-3h-3V6h3z"/>
  </symbol>
</svg>
