<svg xmlns="http://www.w3.org/2000/svg"  fill="none">
<symbol id="floppy">
  <path fill="currentColor" d="M0 0h2v2H0zM0 2h2v1H0zM0 3h2v2H0zM0 5h2v1H0zM0 7h2v1H0zM0 8h2v2H0zM0 10h2v1H0zM0 11h2v2H0zM0 13h2v2H0zM0 15h2v1H0zM0 16h2v2H0zM0 18h2v1H0zM0 19h2v2H0zM18 0v1h-2V0zM16 0v2h-2V0z"/>
  </symbol>
  <path fill="currentColor" d="M15 0v1h-2V0zM13 0v2h-2V0zM11 0v2H9V0z"/>
  <path fill="currentColor" d="M10 0v1H8V0zM8 0v2H6V0zM6 1v1H4V1zM5 0v1H3V0zM3 0v2H1V0zM19 1v2h-1V1zM5 3v1H3V3zM4 2v1H3V2zM5 5v1H4V5zM16 3v2h-2V3zM16 1v2h-1V1zM16 5v2h-1V5zM13 3v2h-2V3z"/>
  <path fill="currentColor" d="M13 2v2h-1V2zM13 5v2h-1V5zM16 6v2h-1V6zM14 7v1h-1V7zM12 7v2h-1V7zM11 6v2h-1V6zM9 7v1H8V7zM8 6v2H7V6zM6 7v1H5V7zM4 7v1H3V7zM18 12v1h-2v-1zM16 11v2h-2v-2z"/>
  <path fill="currentColor" d="M15 12v1h-2v-1zM13 11v2h-2v-2z"/>
  <path fill="currentColor" d="M12 11v2h-2v-2zM10 12v1H8v-1zM8 11v2H6v-2z"/>
  <path fill="currentColor" d="M7 12v1H5v-1zM5 11v1H3v-1zM18 13v1h-2v-1zM5 13v1H3v-1zM17 15v1h-1v-1zM4 15v1H3v-1zM18 16v1h-2v-1zM5 16v1H3v-1zM5 18v1H4v-1zM18 18v1h-1v-1zM20 19v2h-2v-2zM18 20v1h-2v-1z"/>
  <path fill="currentColor" d="M17 19v2h-2v-2zM15 20v1h-2v-1zM13 19v2h-2v-2z"/>
  <path fill="currentColor" d="M12 19v2h-2v-2zM10 20v1H8v-1zM8 19v2H6v-2z"/>
  <path fill="currentColor" d="M7 20v1H5v-1zM5 20v1H3v-1z"/>
  <path fill="currentColor" d="M4 19v2H2v-2zM21 21h-2v-2h2z"/>
  <path fill="currentColor" d="M21 20h-2v-2h2zM21 18h-2v-1h2zM21 16h-2v-2h2zM21 14h-2v-1h2zM21 13h-2v-2h2z"/>
  <path fill="currentColor" d="M21 12h-2v-2h2zM21 9h-2V8h2zM21 8h-2V6h2zM21 6h-2V5h2zM21 5h-2V4h2z"/>

</svg>

